<?xml version="1.0" encoding="utf-8"?>
<!-- Generator: Adobe Illustrator 24.3.0, SVG Export Plug-In . SVG Version: 6.00 Build 0)  -->
<svg version="1.1" id="Слой_2" xmlns="http://www.w3.org/2000/svg" xmlns:xlink="http://www.w3.org/1999/xlink" x="0px" y="0px"
	 viewBox="0 0 1000 1000" style="enable-background:new 0 0 1000 1000;" xml:space="preserve">
<style type="text/css">
	.st0{fill:#1B1464;}
	.st1{fill:#FFFFFF;}
</style>
<g>
	<circle class="st0" cx="501" cy="500" r="500"/>
</g>
<g>
	<circle class="st1" cx="500" cy="211" r="111"/>
</g>
<path class="st1" d="M841,1000c-157.67,0-315.33,0-473,0c-24.8-51.51-65.06-152.92-62-285.46c2.47-106.86,54-239.39,54-239.39
	L459,381l48,127.21c0,0,0.05,83.36,16,141.23c1.88,6.62,4.71,15.91,8.64,26.84c10.43,28.94,21.53,49.57,27.36,60.3
	c31.17,57.38,75.46,106.31,79,110.18c37.06,40.55,70.3,65.42,101,88.14C778.29,963.97,813.86,985.22,841,1000z"/>
</svg>
